<?xml version="1.0" standalone="no"?>
<!DOCTYPE svg PUBLIC "-//W3C//DTD SVG 20010904//EN"
 "http://www.w3.org/TR/2001/REC-SVG-20010904/DTD/svg10.dtd">
<svg version="1.0" xmlns="http://www.w3.org/2000/svg"
 width="300.000000pt" height="182.000000pt" viewBox="0 0 300.000000 182.000000"
 preserveAspectRatio="xMidYMid meet">
<metadata>
Created by potrace 1.10, written by Peter Selinger 2001-2011
</metadata>
<g transform="translate(0.000000,182.000000) scale(0.100000,-0.100000)"
fill="#000000" stroke="none">
<path d="M327 1739 c-15 -11 -32 -38 -39 -61 -11 -36 -10 -42 7 -54 30 -22 61
-17 100 17 77 68 12 161 -68 98z m53 -45 c11 -12 10 -18 -3 -31 -8 -9 -23 -13
-31 -10 -19 8 -21 43 -3 50 20 9 24 8 37 -9z"/>
<path d="M1384 1624 c5 -22 -1 -40 -24 -74 -35 -52 -38 -82 -11 -109 19 -19
99 -41 147 -41 32 0 84 -51 84 -82 0 -32 -27 -68 -51 -68 -13 0 -25 11 -34 33
-8 17 -14 24 -15 15 0 -28 -43 -70 -63 -63 -21 9 -22 32 -1 74 14 29 14 34 0
55 -8 13 -29 28 -45 34 -34 12 -36 10 -19 -17 9 -15 9 -25 0 -46 -7 -14 -12
-41 -12 -60 0 -66 92 -102 126 -50 l16 25 17 -22 c22 -27 73 -28 100 -3 33 29
44 78 28 117 -8 18 -22 39 -31 47 -16 13 -15 16 14 42 36 34 38 58 5 93 -30
32 -72 34 -110 4 -24 -19 -27 -26 -22 -64 l4 -43 -31 6 c-72 14 -82 37 -41 93
39 53 32 93 -24 125 -10 6 -12 1 -7 -21z m193 -140 c7 -18 -7 -46 -25 -52 -13
-4 -27 42 -17 57 10 17 35 13 42 -5z"/>
<path d="M574 1612 c6 -24 1 -39 -25 -75 -42 -60 -36 -91 26 -118 25 -11 67
-23 95 -26 57 -7 78 -25 86 -75 11 -63 -46 -93 -70 -37 l-13 31 -6 -30 c-7
-36 -42 -52 -64 -29 -13 13 -13 18 1 45 29 56 14 92 -46 106 -29 7 -39 -8 -13
-18 19 -7 19 -26 0 -62 -19 -37 -19 -64 0 -91 23 -33 63 -38 97 -13 26 19 31
20 41 7 22 -29 70 -25 102 8 36 35 35 112 0 145 -14 13 -25 26 -25 29 0 3 14
14 30 23 54 31 26 108 -39 108 -60 0 -113 -73 -78 -109 10 -11 5 -13 -26 -8
-71 11 -85 44 -42 95 39 47 31 85 -24 117 -10 6 -12 1 -7 -23z m181 -152 c0
-27 -22 -39 -31 -16 -8 22 3 49 19 43 6 -2 12 -14 12 -27z"/>
<path d="M141 1505 c-44 -48 -50 -79 -20 -98 13 -8 24 -6 45 8 28 18 28 18 6
26 -25 10 -31 49 -7 49 9 0 33 -9 55 -20 22 -11 50 -20 63 -20 13 0 36 9 50
20 35 28 54 25 72 -10 20 -39 19 -62 -5 -93 l-21 -26 21 -21 c25 -25 25 -41 2
-71 -23 -28 -52 -20 -52 15 0 34 -15 40 -30 11 -16 -30 -8 -52 24 -66 36 -17
96 15 119 64 23 46 16 87 -13 87 -20 0 -20 1 2 30 28 38 29 91 1 127 -26 36
-47 39 -79 14 -33 -26 -60 -26 -102 -1 -53 32 -83 26 -131 -25z"/>
<path d="M1069 1501 c-30 -29 -49 -57 -49 -71 0 -12 16 -48 36 -80 44 -72 42
-94 -9 -98 -33 -3 -43 2 -73 33 -38 40 -42 70 -19 115 15 28 14 30 -4 30 -24
0 -45 25 -37 46 6 16 8 16 24 0 24 -21 55 -20 74 2 28 32 29 39 5 35 -14 -3
-29 2 -36 11 -29 34 -78 10 -111 -52 -15 -29 -5 -72 16 -72 11 0 14 -5 9 -17
-29 -70 -29 -72 -12 -107 45 -95 183 -99 243 -8 19 28 21 38 12 70 -6 20 -19
49 -29 63 -33 46 -40 76 -23 94 19 18 18 18 53 0 66 -33 98 -105 71 -155 -7
-13 -7 -21 0 -25 15 -9 12 -56 -5 -89 -20 -38 -11 -45 23 -19 41 30 57 70 44
106 -7 20 -8 36 -2 48 14 25 12 74 -4 113 -20 47 -61 76 -109 76 -34 0 -46 -7
-88 -49z"/>
<path d="M1876 1499 c-86 -68 -74 -189 36 -351 29 -43 53 -76 55 -75 1 2 -19
45 -45 97 -41 83 -47 103 -47 158 0 59 2 66 33 93 48 43 103 41 148 -7 19 -19
34 -44 34 -55 0 -25 5 -24 44 6 46 35 90 33 128 -5 28 -28 30 -35 26 -81 -5
-47 -4 -49 13 -33 22 20 34 90 20 125 -13 36 -68 73 -107 73 -22 0 -46 -11
-72 -31 l-39 -31 -17 39 c-27 60 -81 99 -137 99 -32 0 -55 -7 -73 -21z m74
-20 c0 -6 -6 -9 -14 -6 -7 3 -21 -4 -31 -16 -14 -16 -20 -18 -23 -8 -6 17 24
41 50 41 10 0 18 -5 18 -11z"/>
<path d="M218 1420 c-99 -29 -139 -136 -71 -190 33 -25 35 -25 72 6 55 46 34
132 -24 106 -25 -12 -30 -6 -19 22 9 23 69 21 94 -4 11 -11 20 -33 20 -50 0
-36 13 -38 34 -8 46 66 -23 142 -106 118z m-8 -140 c0 -11 -7 -20 -15 -20 -8
0 -15 2 -15 4 0 2 -3 11 -6 20 -4 12 0 16 15 16 14 0 21 -6 21 -20z"/>
<path d="M1992 1313 c-17 -7 -42 -57 -42 -85 0 -13 11 -58 25 -100 13 -43 22
-84 19 -93 -8 -19 -9 -19 64 4 86 28 135 55 170 96 40 44 42 86 7 120 -29 30
-59 32 -102 5 l-33 -20 -6 25 c-11 42 -59 65 -102 48z m80 -57 c25 -29 27 -30
67 -17 47 14 76 8 85 -16 9 -23 -13 -83 -30 -83 -8 0 -14 -4 -14 -10 0 -16
-101 -60 -132 -58 -22 2 -31 10 -44 43 -50 123 -2 222 68 141z"/>
<path d="M1226 1175 c-10 -8 -39 -17 -65 -20 -79 -11 -130 -34 -137 -62 -4
-15 -2 -33 3 -42 13 -20 85 -26 135 -12 50 15 98 72 98 116 0 38 -6 42 -34 20z
m4 -55 c0 -6 -15 -19 -32 -30 -36 -22 -148 -29 -148 -10 0 15 44 30 88 31 20
0 46 4 57 9 27 12 35 12 35 0z"/>
<path d="M2396 1152 c-32 -61 -10 -162 54 -242 35 -44 32 -51 -7 -20 -15 11
-29 17 -32 14 -3 -4 0 -9 8 -12 8 -3 24 -15 35 -26 12 -12 46 -28 76 -35 30
-8 61 -18 68 -24 8 -6 31 -12 52 -13 21 -1 46 -7 57 -13 16 -9 15 -10 -10 -11
-16 0 -37 5 -48 10 -12 7 -19 7 -19 1 0 -14 62 -30 94 -24 20 4 31 0 42 -16
19 -27 39 -28 24 -1 -9 16 -8 18 5 14 20 -8 72 13 79 32 5 12 1 12 -24 -1 -16
-8 -42 -14 -57 -14 l-28 1 30 8 c25 6 20 7 -25 8 -32 0 -87 11 -130 26 -41 14
-83 26 -92 26 -50 0 -121 118 -132 219 l-6 63 32 -6 c17 -3 40 -14 50 -23 16
-15 17 -18 3 -33 -8 -9 -15 -27 -14 -41 1 -23 1 -23 11 4 13 37 29 34 21 -5
-4 -22 -3 -29 5 -24 17 10 15 -26 -3 -50 -8 -10 -14 -28 -14 -39 0 -18 1 -18
9 3 12 27 34 30 27 2 -3 -11 -4 -20 -2 -20 1 0 28 11 59 25 31 14 56 21 56 15
0 -5 -5 -12 -12 -16 -7 -5 -3 -11 13 -17 l24 -9 -30 -9 c-16 -5 -54 -6 -82 -3
-31 3 -53 2 -53 -4 0 -5 37 -12 83 -16 76 -6 83 -5 100 15 9 12 17 30 17 40 0
21 21 34 73 43 20 4 37 12 37 18 0 7 -11 8 -32 3 -60 -14 -83 -12 -80 8 2 11
-4 17 -16 17 -11 0 -22 9 -25 20 -4 16 -14 20 -50 20 -27 0 -47 -5 -50 -12 -3
-7 -6 -3 -6 9 -1 29 -58 93 -82 93 -10 0 -19 5 -19 10 0 6 -5 10 -11 10 -7 0
-17 8 -24 17 -11 15 -14 14 -29 -15z m206 -156 c-7 -18 22 -24 35 -8 12 16 12
16 13 0 0 -10 -12 -25 -27 -35 -16 -10 -30 -20 -33 -23 -3 -4 -13 -10 -24 -13
-15 -6 -17 -3 -13 12 3 11 0 22 -5 23 -6 2 -5 14 3 31 9 20 19 27 33 25 12 -2
19 -7 18 -12z"/>
<path d="M2431 1026 c1 -23 3 -25 6 -8 5 24 19 30 25 10 3 -7 7 -3 10 9 4 16
1 21 -18 21 -20 0 -24 -5 -23 -32z"/>
<path d="M1875 1010 c-18 -20 -18 -22 3 -66 23 -48 28 -90 12 -114 -7 -11 -10
-4 -10 26 0 26 -7 51 -19 65 -18 22 -27 24 -108 25 -116 1 -113 0 -113 31 0
33 -10 24 -27 -25 -18 -53 -16 -90 7 -123 28 -38 74 -46 152 -26 44 11 67 13
81 6 18 -10 18 -12 1 -32 -9 -12 4 0 30 26 41 43 46 54 46 93 0 25 -7 59 -16
75 -12 24 -13 34 -3 45 19 23 -15 18 -36 -6z m-34 -130 c31 -17 22 -31 -18
-29 -21 0 -64 -2 -95 -6 -41 -6 -62 -4 -73 5 -33 27 -26 29 133 38 18 1 42 -3
53 -8z"/>
<path d="M273 981 c-96 -33 -172 -99 -188 -162 -9 -38 18 -95 57 -119 82 -50
217 -2 218 78 0 30 -8 28 -47 -10 -31 -30 -34 -31 -74 -19 -151 45 -96 191 72
191 80 0 162 -26 314 -99 202 -97 198 -96 311 -96 91 0 106 3 157 29 69 34
128 96 152 159 10 26 16 49 14 52 -3 2 -24 7 -47 11 -42 7 -42 6 -42 -25 0
-56 -24 -112 -63 -147 -34 -31 -42 -34 -100 -34 -75 0 -139 20 -286 91 -141
68 -191 87 -273 104 -87 19 -110 18 -175 -4z m385 -101 c29 -14 52 -31 52 -39
0 -10 -3 -11 -13 -2 -8 6 -17 8 -20 4 -4 -3 -7 -1 -7 5 0 7 -8 12 -18 12 -9 0
-23 9 -30 20 -7 12 -17 18 -22 15 -6 -3 -10 -1 -10 5 0 13 -1 13 68 -20z
m-508 -102 c0 -13 41 -47 58 -48 6 0 12 -4 12 -10 0 -20 -41 -9 -70 19 -32 30
-41 65 -15 55 8 -4 15 -11 15 -16z"/>
<path d="M2143 934 c-15 -24 -15 -27 0 -35 22 -13 39 -76 26 -100 -16 -31 7
-22 32 12 28 39 30 100 5 128 -25 28 -42 26 -63 -5z"/>
<path d="M2275 941 c-16 -19 -16 -21 5 -51 16 -23 21 -41 18 -70 -4 -49 4 -50
31 -6 25 40 27 93 5 124 -19 27 -36 28 -59 3z"/>
<path d="M2827 913 c-12 -11 -7 -33 7 -33 7 0 16 9 19 20 5 19 -12 28 -26 13z"/>
<path d="M2872 900 c-12 -31 -42 -59 -42 -40 0 7 -7 10 -15 6 -9 -3 -15 0 -15
9 0 17 -9 19 -30 5 -13 -8 -11 -11 8 -16 17 -5 22 -14 22 -38 0 -23 3 -27 10
-16 5 8 7 24 4 35 -4 15 -3 16 4 6 21 -30 86 18 72 54 -7 19 -8 19 -18 -5z"/>
<path d="M2762 829 c-10 -16 -17 -18 -25 -10 -13 13 -27 14 -27 2 0 -5 9 -11
20 -14 20 -5 50 15 50 34 0 14 -4 11 -18 -12z"/>
<path d="M2480 795 c-13 -16 -7 -45 10 -45 6 0 8 5 5 10 -12 20 29 23 78 6 62
-22 70 -15 18 18 -45 29 -92 34 -111 11z"/>
<path d="M1851 719 c-47 -44 -63 -89 -49 -131 6 -18 20 -45 30 -60 19 -28 27
-82 14 -95 -11 -12 -84 -8 -99 5 -10 9 -13 25 -9 58 4 37 1 49 -18 69 -61 64
-240 -14 -240 -105 0 -36 50 -80 90 -80 34 0 83 52 78 83 -4 28 -33 45 -55 31
-25 -16 -27 -34 -4 -34 14 0 21 -6 21 -20 0 -26 -24 -25 -50 2 -27 29 -25 54
5 83 27 28 33 29 72 14 37 -14 43 -25 43 -86 0 -48 2 -54 31 -68 61 -32 150 4
189 78 l23 43 -32 71 c-36 84 -38 97 -11 141 25 40 13 41 -29 1z"/>
<path d="M2191 705 c-44 -51 -42 -85 9 -125 22 -17 40 -35 40 -38 0 -4 -15
-14 -32 -22 -72 -34 -47 -140 32 -140 28 0 77 47 90 85 10 30 9 41 -9 78 -11
23 -41 59 -66 80 -52 44 -60 66 -12 37 44 -27 72 -25 102 7 33 36 34 60 2 39
-20 -14 -26 -13 -66 9 -24 14 -47 25 -51 25 -4 0 -22 -16 -39 -35z m96 -233
c7 -31 -11 -50 -35 -36 -21 14 -28 60 -11 81 12 13 14 13 26 -4 8 -10 16 -28
20 -41z"/>
<path d="M1314 708 c-32 -38 -45 -67 -51 -117 -5 -42 -2 -51 30 -93 20 -26 43
-61 52 -78 18 -35 16 -76 -4 -72 -24 5 -54 -10 -97 -50 -53 -49 -57 -68 -8
-38 43 27 107 24 173 -8 85 -42 171 -20 204 51 25 53 21 59 -17 21 -23 -23
-43 -34 -63 -34 -29 0 -153 38 -153 46 0 3 10 18 22 35 20 27 21 33 10 75 -7
25 -33 74 -57 109 -25 34 -45 70 -45 78 0 25 19 30 46 12 36 -23 65 -15 91 24
28 41 30 60 5 38 -24 -22 -38 -21 -69 3 -33 26 -45 25 -69 -2z m13 -168 c9
-16 20 -30 24 -30 3 0 11 -11 17 -24 9 -21 8 -23 -9 -19 -12 4 -18 11 -15 20
3 8 2 12 -3 9 -10 -6 -32 16 -35 36 -1 7 -5 19 -9 26 -5 6 -4 12 2 12 5 0 18
-13 28 -30z"/>
<path d="M1525 689 c-36 -33 -45 -48 -45 -75 0 -44 23 -57 67 -36 39 19 41 24
11 37 -30 13 -30 49 -1 53 11 2 44 -9 71 -23 59 -31 90 -27 127 17 29 35 27
45 -5 28 -18 -10 -30 -8 -72 14 -71 37 -100 34 -153 -15z"/>
<path d="M2038 719 c-28 -16 -80 -98 -76 -121 2 -11 12 -26 23 -32 11 -6 22
-12 24 -14 3 -1 -5 -11 -17 -22 -58 -55 -22 -151 56 -150 21 1 56 28 71 57 34
68 -23 129 -59 63 -10 -18 -9 -22 9 -27 27 -7 28 -43 1 -43 -42 0 -53 71 -20
135 24 47 24 46 6 39 -18 -7 -48 24 -44 45 5 24 35 25 60 2 l22 -21 23 22 c26
24 29 38 10 38 -8 0 -22 9 -32 20 -20 22 -32 24 -57 9z"/>
<path d="M2439 681 c-27 -26 -49 -53 -49 -58 0 -26 44 -63 93 -77 71 -21 117
-51 117 -76 0 -22 -12 -25 -41 -10 -12 7 -19 7 -19 1 0 -15 -36 -32 -54 -25
-21 8 -28 37 -17 68 13 33 1 33 -38 0 -38 -32 -40 -66 -5 -100 27 -28 64 -27
93 1 12 12 17 10 31 -7 l17 -21 30 21 c37 27 67 85 59 117 -8 30 -47 58 -117
85 -72 27 -83 35 -76 54 9 22 40 20 87 -4 22 -11 49 -20 61 -20 23 0 89 44 89
59 0 5 -19 6 -43 4 -32 -4 -52 0 -77 16 -56 34 -86 28 -141 -28z"/>
</g>
</svg>
